<svg width="47" height="45" viewBox="0 0 47 45" fill="none" xmlns="http://www.w3.org/2000/svg">
<path fill-rule="evenodd" clip-rule="evenodd" d="M21.3016 0.125483C16.8857 0.585068 12.5035 2.45421 9.13874 5.31326C2.87808 10.6331 -0.0437684 18.6635 1.3254 26.7877C2.40378 33.1865 6.3351 38.9712 11.9221 42.3803C13.1082 43.1039 14.4932 43.7842 15.7044 44.2378C16.8656 44.6727 17.3948 44.6639 17.8045 44.2025L18.0643 43.9098V41.5279V39.146L17.8099 39.2116C16.7047 39.4968 14.9954 39.5181 13.9255 39.2601C12.8467 38.9998 12.117 38.5994 11.3988 37.8739C10.8806 37.3503 10.6947 37.0632 10.1565 35.9552C9.59029 34.7891 9.45016 34.5787 8.8226 33.9519C8.4369 33.5667 7.92644 33.1194 7.68827 32.9578C7.4501 32.7962 7.18353 32.5538 7.09594 32.4193C6.95369 32.2009 6.95165 32.1596 7.07661 32.0338C7.30914 31.7998 7.88278 31.7124 8.44208 31.8257C9.64532 32.0696 10.6661 32.8511 11.5927 34.2377C12.2428 35.2106 12.9176 35.8419 13.7171 36.2254C14.2986 36.5042 14.3591 36.5135 15.567 36.5108C16.6558 36.5083 16.8977 36.4785 17.4563 36.2782L18.097 36.0483L18.2941 35.3037C18.5179 34.4589 18.7422 33.9861 19.2146 33.3633C19.3952 33.1252 19.5222 32.9304 19.4967 32.9304C19.2025 32.9304 17.4432 32.6045 16.7275 32.4173C13.2833 31.5168 10.9617 29.4929 9.95934 26.5169C9.55607 25.3193 9.39818 24.4793 9.28442 22.9253C9.08102 20.1453 9.59806 18.1374 11.0127 16.2137L11.5526 15.4796L11.3707 14.9212C11.2228 14.4673 11.1877 14.0926 11.1832 12.9201C11.1777 11.4604 11.2811 10.786 11.658 9.82553L11.7949 9.47651H12.4128C13.5647 9.47651 15.1283 10.0531 16.9523 11.1505L18.0379 11.8037L19.0454 11.5794C20.7837 11.1923 21.6229 11.1071 23.7064 11.1062C25.7936 11.1053 26.6024 11.1876 28.3872 11.583L29.4145 11.8106L30.1908 11.3255C31.2576 10.6588 32.8615 9.9025 33.7015 9.6701C34.0891 9.56288 34.6791 9.47651 35.0243 9.47651H35.6474L35.7838 9.80505C36.328 11.1154 36.4783 13.4137 36.1113 14.8099L35.9203 15.5365L36.3699 16.1129C37.2807 17.281 37.9211 18.8163 38.142 20.3613C38.3547 21.8483 38.1425 24.3582 37.668 25.97C36.5358 29.8161 33.7099 32.0534 29.1172 32.7401C28.7611 32.7933 28.3318 32.8603 28.1632 32.889L27.8566 32.9411L28.1982 33.3216C28.3861 33.5308 28.6598 33.9684 28.8066 34.2942C29.3188 35.4308 29.3456 35.7057 29.3471 39.8439C29.3485 44.0156 29.3639 44.1439 29.8916 44.4185C30.3593 44.6619 30.8461 44.5965 32.0108 44.1338C35.0274 42.9355 37.4875 41.3096 39.8052 38.9824C43.3971 35.3759 45.4927 31.1178 46.2879 25.8105C46.4516 24.7177 46.4556 20.9716 46.2942 19.9005C45.4856 14.5337 43.3632 10.2397 39.7233 6.6062C34.8814 1.77265 28.1678 -0.589209 21.3016 0.125483ZM9 32.586C9 32.7569 9.19303 32.9304 9.38301 32.9304C9.60268 32.9304 9.68722 32.765 9.55163 32.6006C9.41289 32.4324 9 32.4215 9 32.586ZM9.95351 33.3619C9.86916 33.5831 10.0452 33.8101 10.3274 33.844C10.5203 33.8673 10.5724 33.834 10.5724 33.6878C10.5724 33.3095 10.0737 33.0468 9.95351 33.3619ZM10.8426 34.4749C10.6628 34.6929 10.9119 35.1079 11.2459 35.147C11.4702 35.1733 11.4973 35.1463 11.4973 34.8963C11.4973 34.7124 11.4267 34.5665 11.2917 34.4714C11.0352 34.2905 10.9943 34.2909 10.8426 34.4749ZM11.9829 35.6911C11.8108 35.761 11.8431 36.1371 12.0365 36.3131C12.1295 36.3978 12.3168 36.4671 12.4527 36.4671C12.6525 36.4671 12.6997 36.424 12.6997 36.2412C12.6997 36.1079 12.5997 35.9361 12.456 35.8224C12.2025 35.6216 12.1736 35.6136 11.9829 35.6911ZM13.4919 36.7769C13.2582 36.9489 13.4367 37.2688 13.8127 37.3519C14.3085 37.4616 14.5508 37.0742 14.159 36.7982C13.9073 36.6207 13.7126 36.6145 13.4919 36.7769ZM17.1075 36.9165C16.8934 37.1544 16.9164 37.2948 17.186 37.398C17.4505 37.4992 17.8369 37.3641 17.9221 37.1407C18.0601 36.7788 17.3958 36.596 17.1075 36.9165ZM15.3866 37.0962C15.1301 37.3051 15.2146 37.5526 15.5693 37.6309C16.1207 37.7529 16.481 37.2159 15.9772 37.0232C15.6589 36.9015 15.6195 36.9063 15.3866 37.0962Z" fill="#000"/>
</svg>
